@startuml abrirRecompensa

skinparam linetype polyline

state in2 as "RECOMPENSAS_ABIERTAS"
in2 -[#green]-> abrirRecompensa
note on link
abrirRecompensa()
end note

state abrirRecompensa as "abrirRecompensa()" {

    state " " as MostrandoRecompensa

    [*] -[#green]-> MostrandoRecompensa
    note on link
    <b>Investigador</b> solicita abrir una recompensa
    end note

    MostrandoRecompensa -[#green]-> [*]
    note on link
    <b>Sistema</b> presenta información de la recompensa
    • Tipo
    • Cantidad
    
    
    end note
}


abrirRecompensa -[#green]-> RECOMPENSAS_ABIERTAS
note on link
abrirRecompensas()
end note





@enduml
